<svg xmlns="http://www.w3.org/2000/svg" xmlns:xlink="http://www.w3.org/1999/xlink" width="93" height="93" viewBox="0 0 93 93">
  <defs>
    <clipPath id="clip-Settings">
      <rect width="93" height="93"/>
    </clipPath>
  </defs>
  <g id="Settings" clip-path="url(#clip-Settings)">
    <path id="Icon_ionic-ios-settings" data-name="Icon ionic-ios-settings" d="M37.528,22.5A4.633,4.633,0,0,1,40.5,18.178a18.362,18.362,0,0,0-2.222-5.353,4.7,4.7,0,0,1-1.884.4,4.622,4.622,0,0,1-4.228-6.506A18.307,18.307,0,0,0,26.822,4.5a4.628,4.628,0,0,1-8.644,0,18.362,18.362,0,0,0-5.353,2.222A4.622,4.622,0,0,1,8.6,13.228a4.542,4.542,0,0,1-1.884-.4A18.768,18.768,0,0,0,4.5,18.188a4.631,4.631,0,0,1,.009,8.644,18.362,18.362,0,0,0,2.222,5.353,4.624,4.624,0,0,1,6.1,6.1,18.469,18.469,0,0,0,5.353,2.222,4.62,4.62,0,0,1,8.625,0,18.362,18.362,0,0,0,5.353-2.222,4.629,4.629,0,0,1,6.1-6.1,18.47,18.47,0,0,0,2.222-5.353A4.655,4.655,0,0,1,37.528,22.5ZM22.584,29.991a7.5,7.5,0,1,1,7.5-7.5A7.5,7.5,0,0,1,22.584,29.991Z" transform="translate(24.5 24.5)" fill="#141414"/>
  </g>
</svg>
